<svg xmlns="http://www.w3.org/2000/svg" width="101" height="77" fill="none"><path fill="#EB5858" d="M61.125 18.688c2.083.125 3.833.229 5.25.312 1.458.042 2.667.083 3.625.125 1.083.042 2 .042 2.75 0s1.77-.146 3.063-.312c1.083-.125 2.52-.313 4.312-.563a747.47 747.47 0 0 0 6.813-1.125c-.959.958-1.709 1.833-2.25 2.625-.5.75-.896 1.396-1.188 1.938-.333.666-.562 1.229-.687 1.687-.084.417 0 1.458.25 3.125s.604 3.646 1.062 5.938c.458 2.25.958 4.666 1.5 7.25a281.16 281.16 0 0 0 1.625 7.187c.542 2.208 1.02 4.104 1.438 5.688.458 1.541.791 2.458 1 2.75.624.874 1.02 1.458 1.187 1.75.167.25.458.479.875.687.167.083.438.208.813.375.333.167.77.375 1.312.625.583.25 1.313.542 2.188.875-1.626.083-3.021.146-4.188.188-1.167 0-2.125.02-2.875.062-.875.042-1.625.083-2.25.125-.625 0-1.375.042-2.25.125-.75.083-1.73.167-2.937.25a224.6 224.6 0 0 1-4.126.25c.834-.583 1.5-1.104 2-1.562.542-.5.959-.917 1.25-1.25.334-.417.563-.792.688-1.126.083-.374.146-.937.188-1.687.041-.667.041-1.542 0-2.625-.042-1.125-.146-2.583-.313-4.375l-16.437 1.688c-.417.708-.73 1.333-.938 1.874-.208.5-.354.938-.437 1.313-.126.458-.167.833-.126 1.125.084.333.23.73.438 1.188.208.416.5.916.875 1.5.417.541 1.02 1.187 1.813 1.937a79.705 79.705 0 0 0-3.188-.062c-1.083 0-2.083.02-3 .062-1.083.042-2.146.083-3.187.125-1.042.042-2.23.104-3.563.188-1.125.083-2.437.187-3.937.312a120.09 120.09 0 0 0-4.938.375c1.083-.5 2-1 2.75-1.5a21 21 0 0 0 1.875-1.5c.583-.5 1.083-.98 1.5-1.437.292-.417.875-1.376 1.75-2.876a170.86 170.86 0 0 0 2.938-5.437 308.752 308.752 0 0 0 3.5-6.687 203.566 203.566 0 0 0 3.374-6.688c1-2.125 1.813-3.958 2.438-5.5.625-1.542.938-2.542.938-3-.084-.542-.292-1.146-.626-1.812-.291-.584-.75-1.25-1.374-2-.584-.75-1.438-1.584-2.563-2.5ZM80.5 43.375c-.25-1.458-.48-2.708-.687-3.75a185.15 185.15 0 0 1-.5-2.687 34.747 34.747 0 0 1-.376-2.188 76.217 76.217 0 0 1-.437-2.25c-.167-.792-.375-1.77-.625-2.937-.208-1.209-.48-2.646-.812-4.313A2090.4 2090.4 0 0 1 71.5 36.313 508.53 508.53 0 0 0 68.688 42c-.709 1.417-1.105 2.25-1.188 2.5l13-1.125Z"/><path fill="#008BB5" d="M8.063 16.313c1.333.333 2.604.583 3.812.75 1.208.166 2.27.291 3.188.375 1.083.125 2.083.166 3 .125 1.166 0 2.625-.105 4.375-.313 1.791-.208 3.625-.396 5.5-.562a62.587 62.587 0 0 1 5.375-.375c1.75-.084 3.166.02 4.25.312a15.88 15.88 0 0 1 3.312 1.188 13.04 13.04 0 0 1 3.188 1.937 9.764 9.764 0 0 1 2.374 2.688c.626 1 .98 2.145 1.063 3.437a10.69 10.69 0 0 1-1.125 4.563c-.583 1.208-1.562 2.458-2.937 3.75-1.376 1.25-3.355 2.208-5.938 2.874 1.292.167 2.396.459 3.313.876.958.374 1.77.833 2.437 1.374.708.5 1.27 1.063 1.688 1.688.458.625.812 1.25 1.062 1.875.625 1.458.917 3.083.875 4.875-.25 2.333-.73 4.188-1.437 5.563C44.77 54.687 44 55.75 43.125 56.5c-.875.75-1.77 1.27-2.687 1.563-.917.291-1.75.52-2.5.687-.75.167-1.667.25-2.75.25-1.084 0-2.25-.02-3.5-.062a102.78 102.78 0 0 0-3.75-.188 27.22 27.22 0 0 0-3.688 0c-.958.083-2.125.167-3.5.25l-4.375.313c-1.75.083-3.792.187-6.125.312a4.802 4.802 0 0 0 1.125-1.125c.333-.458.604-.854.813-1.187.208-.417.395-.813.562-1.188.125-.333.23-1.25.313-2.75.083-1.5.145-3.292.187-5.375.042-2.125.063-4.396.063-6.812.041-2.459.02-4.813-.063-7.063a115.776 115.776 0 0 0-.25-6.062c-.083-1.792-.208-3.084-.375-3.875a19.34 19.34 0 0 0-1-2.688c-.333-.792-.812-1.646-1.437-2.562a15.446 15.446 0 0 0-2.126-2.625Zm13.187 6.375c0 .166.02.729.063 1.687.041.833.083 2.125.125 3.875.083 1.708.187 4.146.312 7.313 1.042.458 2.063.708 3.063.75 1 0 1.895-.042 2.687-.126a13.406 13.406 0 0 0 2.625-.624 5.33 5.33 0 0 0 2.625-2.25c.667-1.042 1.104-2.126 1.313-3.25.25-1.167.312-2.25.187-3.25-.125-1.042-.396-1.792-.812-2.25-.792-.709-1.771-1.292-2.938-1.75-1-.375-2.27-.625-3.812-.75-1.5-.167-3.313.041-5.438.625Zm-.312 29.625c1.541.791 2.895 1.312 4.062 1.562 1.167.25 2.146.375 2.938.375.916 0 1.708-.125 2.375-.375a10.931 10.931 0 0 0 2.312-1.5c.792-.667 1.375-1.437 1.75-2.312.417-.917.583-1.917.5-3-.083-1.126-.562-2.355-1.437-3.688a8.428 8.428 0 0 0-2.876-2.25c-1-.458-2.27-.75-3.812-.875-1.5-.125-3.354.23-5.562 1.063l-.25 11Z"/></svg>