<svg xmlns="http://www.w3.org/2000/svg" width="250" height="160" fill="none"><path fill="#008BB5" d="M12.297 63.484c1 .25 1.953.438 2.86.563.906.125 1.702.219 2.39.281a14.12 14.12 0 0 0 2.25.094c.875 0 1.969-.078 3.281-.234 1.344-.157 2.719-.297 4.125-.422a46.92 46.92 0 0 1 4.031-.282c1.313-.062 2.375.016 3.188.235a11.9 11.9 0 0 1 2.484.89c.875.375 1.672.86 2.39 1.454a7.323 7.323 0 0 1 1.782 2.015c.469.75.734 1.61.797 2.578a8.015 8.015 0 0 1-.844 3.422c-.437.906-1.172 1.844-2.203 2.813-1.031.937-2.516 1.656-4.453 2.156.969.125 1.797.344 2.484.656.72.281 1.328.625 1.828 1.031.532.375.954.797 1.266 1.266.344.469.61.938.797 1.406.469 1.094.688 2.313.656 3.656-.187 1.75-.547 3.141-1.078 4.172-.5 1.032-1.078 1.829-1.734 2.391-.657.563-1.328.953-2.016 1.172a22.15 22.15 0 0 1-1.875.516c-.562.124-1.25.187-2.062.187-.813 0-1.688-.016-2.625-.047a77.08 77.08 0 0 0-2.813-.14 20.406 20.406 0 0 0-2.765 0c-.72.062-1.594.124-2.625.187l-3.282.234c-1.312.063-2.843.141-4.593.235.343-.25.624-.531.843-.844.25-.344.453-.64.61-.89.156-.313.297-.61.422-.891.093-.25.171-.938.234-2.063.062-1.125.11-2.469.14-4.031.032-1.594.047-3.297.047-5.11a96.982 96.982 0 0 0-.047-5.296A86.805 86.805 0 0 0 16 72.297c-.062-1.344-.156-2.313-.281-2.906a14.548 14.548 0 0 0-.75-2.016c-.25-.594-.61-1.234-1.078-1.922a11.586 11.586 0 0 0-1.594-1.969Zm9.89 4.782c0 .125.016.546.047 1.265.032.625.063 1.594.094 2.906.063 1.282.14 3.11.235 5.485.78.344 1.546.531 2.296.562.75 0 1.422-.03 2.016-.093a9.981 9.981 0 0 0 1.969-.47 3.998 3.998 0 0 0 1.968-1.687c.5-.78.829-1.593.985-2.437.187-.875.234-1.688.14-2.438-.093-.78-.296-1.343-.609-1.687-.594-.531-1.328-.969-2.203-1.313-.75-.28-1.703-.468-2.86-.562-1.124-.125-2.484.031-4.078.469Zm-.234 22.218c1.156.594 2.172.985 3.047 1.172.875.188 1.61.281 2.203.281.688 0 1.281-.093 1.781-.28a8.2 8.2 0 0 0 1.735-1.126 4.653 4.653 0 0 0 1.312-1.734c.313-.688.438-1.438.375-2.25-.062-.844-.422-1.766-1.078-2.766a6.32 6.32 0 0 0-2.156-1.687c-.75-.344-1.703-.563-2.86-.656-1.125-.094-2.515.171-4.171.796l-.188 8.25Zm21.844-27.468c.906.156 1.703.265 2.39.328.72.062 1.313.11 1.782.14.562.032 1.047.047 1.453.047.406 0 .984-.031 1.734-.093.625-.063 1.438-.141 2.438-.235a72.588 72.588 0 0 0 3.797-.469c-.438.125-.844.485-1.22 1.078a14.302 14.302 0 0 0-.937 1.829c-.343.78-.64 1.64-.89 2.578-.219.844-.5 2-.844 3.469a164.214 164.214 0 0 0-.937 4.78 70.819 70.819 0 0 0-.657 5.25c-.156 1.75-.187 3.36-.093 4.829.124 1.469.421 2.687.89 3.656.469.938 1.188 1.438 2.156 1.5 1.47.125 2.688.14 3.657.047 1-.125 1.812-.297 2.437-.516.625-.218 1.11-.468 1.453-.75.344-.312.61-.609.797-.89.5-.719 1.016-1.64 1.547-2.766.531-1.125 1-2.203 1.406-3.234a103.13 103.13 0 0 0 1.078-2.625c.282-.719.422-1.063.422-1.031 0 .062-.015.421-.047 1.078 0 .625-.015 1.39-.046 2.296 0 .876-.016 1.797-.047 2.766 0 .969-.016 1.797-.047 2.484a187.54 187.54 0 0 0-.094 1.876c-.031.593-.062 1.296-.094 2.109 0 .812-.031 1.703-.094 2.672a83.607 83.607 0 0 0-3.75-.188 121.228 121.228 0 0 0-3.14-.047c-1.063 0-2.047.016-2.953.047-.969.031-2.094.078-3.375.14l-4.078.235c-1.625.063-3.5.156-5.625.281.25-.437.453-.843.609-1.218.188-.375.328-.688.422-.938a3.59 3.59 0 0 0 .234-.797c.188-1 .344-2.265.469-3.796.125-1.563.219-3.22.281-4.97.094-1.75.14-3.53.14-5.343.032-1.844.032-3.547 0-5.11a68.232 68.232 0 0 0-.187-4.078c-.062-1.156-.156-1.953-.28-2.39-.157-.5-.345-1-.563-1.5a8.949 8.949 0 0 0-.703-1.313 5.11 5.11 0 0 0-.891-1.218Zm40.5-1.36c1.687.063 3.39.375 5.11.938 1.75.531 3.359 1.406 4.827 2.625 1.47 1.187 2.72 2.734 3.75 4.64 1.032 1.875 1.672 4.172 1.922 6.891.219 2.219-.062 4.422-.844 6.61a22.158 22.158 0 0 1-3.14 5.953 21.78 21.78 0 0 1-4.64 4.64c-1.75 1.25-3.5 2.078-5.25 2.484-1.063.25-2.235.282-3.516.094-1.25-.219-2.532-.61-3.844-1.172a22.847 22.847 0 0 1-3.797-2.25 20.788 20.788 0 0 1-3.328-3.093 19.46 19.46 0 0 1-2.531-3.844 13.091 13.091 0 0 1-1.22-4.313c-.155-1.25-.171-2.625-.046-4.125a25.46 25.46 0 0 1 .89-4.546c.47-1.532 1.11-3 1.922-4.407a14.124 14.124 0 0 1 3.188-3.75c1.281-1.094 2.781-1.937 4.5-2.531 1.75-.625 3.766-.906 6.047-.844Zm-8.39 18.985c-.438 3.343-.126 6.03.937 8.062 1.094 2.031 2.734 3.266 4.922 3.703 1.062.219 2.078 0 3.046-.656 1-.687 1.907-1.672 2.72-2.953.812-1.281 1.515-2.781 2.109-4.5a30.18 30.18 0 0 0 1.312-5.39c.281-1.876.297-3.563.047-5.063-.219-1.531-.61-2.828-1.172-3.89-.562-1.095-1.25-1.938-2.062-2.532-.782-.594-1.594-.922-2.438-.984-1.469-.094-2.75.296-3.844 1.171-1.093.844-2.015 1.954-2.765 3.329-.75 1.374-1.36 2.921-1.828 4.64a43.761 43.761 0 0 0-.985 5.063Zm43.359-17.485c2-.031 3.64.328 4.922 1.078 1.312.75 2.374 1.641 3.187 2.672.813 1.031 1.437 2.078 1.875 3.14a832.13 832.13 0 0 1 1.031 2.438c.063.157.188.36.375.61.156.219.375.484.656.797.313.28.704.609 1.172.984-.968.031-1.828.063-2.578.094-.75 0-1.39.015-1.922.047a74.093 74.093 0 0 0-3.328.234c-.625.063-1.39.125-2.297.188-.906.062-2.015.156-3.328.28.781-.937 1.391-1.765 1.828-2.484.469-.75.813-1.406 1.032-1.968.25-.594.39-1.11.421-1.547.063-.438.047-.813-.046-1.125-.188-.719-.672-1.235-1.454-1.547-2.25-.625-4.218-.125-5.906 1.5-1.656 1.594-2.844 4.219-3.562 7.875a192.776 192.776 0 0 0-.985 5.672c-.281 1.937-.39 3.719-.328 5.344.063 1.593.375 2.89.938 3.89.562 1 1.531 1.469 2.906 1.406 1.344-.062 2.484-.28 3.422-.656.937-.406 1.687-.875 2.25-1.406.562-.563.953-1.156 1.172-1.781.25-.657.343-1.266.281-1.829-.125-.437-.453-.906-.984-1.406-.469-.437-1.172-.922-2.11-1.453-.937-.562-2.281-1.14-4.031-1.734 1.656-.094 3.016-.156 4.078-.188a64.297 64.297 0 0 0 2.578-.187c.75-.063 1.328-.11 1.735-.14.375-.032.922-.063 1.64-.095a49.54 49.54 0 0 1 2.391-.046c1 0 2.25-.016 3.75-.047-.563.562-1 1.078-1.313 1.546-.156.25-.296.47-.422.657-.124.312-.171.953-.14 1.922 0 .812.062 2.015.187 3.609.125 1.563.36 3.703.703 6.422l-6.234.844.281-6.329c-.718 1.72-1.625 3-2.718 3.844-1.063.844-2.079 1.438-3.047 1.781-1.156.407-2.36.594-3.61.563a19.644 19.644 0 0 1-4.875-1.125 12.023 12.023 0 0 1-4.312-2.719c-1.25-1.25-2.219-2.86-2.906-4.828-.657-1.969-.86-4.406-.61-7.312.281-2.907.969-5.438 2.063-7.594 1.125-2.188 2.515-4 4.172-5.438a16.935 16.935 0 0 1 5.578-3.234 20.685 20.685 0 0 1 6.422-1.219Z"/><path fill="#EB5858" d="m155.594 65.266 3.937.234c1.094.031 2 .063 2.719.094.812.031 1.5.031 2.062 0 .563-.031 1.329-.11 2.297-.235a144.1 144.1 0 0 0 3.235-.421c1.375-.22 3.078-.5 5.109-.844-.719.719-1.281 1.375-1.687 1.969a18.724 18.724 0 0 0-.891 1.453c-.25.5-.422.921-.516 1.265-.062.313 0 1.094.188 2.344.187 1.25.453 2.734.797 4.453.344 1.688.718 3.5 1.125 5.438a206.38 206.38 0 0 0 1.219 5.39c.406 1.656.765 3.078 1.078 4.266.343 1.156.593 1.844.75 2.062.468.657.765 1.094.89 1.313.125.187.344.36.656.516.126.062.329.156.61.28.25.126.578.282.984.47.438.187.985.406 1.641.656-1.219.062-2.266.11-3.141.14-.875 0-1.594.016-2.156.047-.656.031-1.219.063-1.688.094-.468 0-1.031.031-1.687.094a55.3 55.3 0 0 1-2.203.187c-.875.063-1.906.125-3.094.188a14.976 14.976 0 0 0 1.5-1.172c.406-.375.719-.688.938-.938.25-.312.422-.593.515-.843.063-.282.11-.704.141-1.266.031-.5.031-1.156 0-1.969a62.244 62.244 0 0 0-.234-3.281l-12.329 1.266c-.312.53-.547 1-.703 1.406a6.092 6.092 0 0 0-.328.984c-.094.344-.125.625-.094.844.063.25.172.547.328.89.157.313.376.688.657 1.126.312.406.765.89 1.359 1.453a59.707 59.707 0 0 0-2.39-.047c-.813 0-1.563.016-2.25.047-.813.031-1.61.062-2.391.094-.781.03-1.672.078-2.672.14-.844.063-1.828.14-2.953.234a90.94 90.94 0 0 0-3.703.282c.812-.375 1.5-.75 2.062-1.125a15.853 15.853 0 0 0 1.407-1.125c.437-.375.812-.735 1.124-1.078.219-.313.657-1.032 1.313-2.157a127.613 127.613 0 0 0 2.203-4.078 229.18 229.18 0 0 0 2.625-5.015 151.587 151.587 0 0 0 2.531-5.016 83.669 83.669 0 0 0 1.828-4.125c.469-1.156.704-1.906.704-2.25-.063-.406-.219-.86-.469-1.36-.219-.437-.563-.937-1.031-1.5-.438-.562-1.078-1.187-1.922-1.874Zm14.531 18.515a100.685 100.685 0 0 0-.516-2.812c-.156-.813-.281-1.485-.375-2.016a26.457 26.457 0 0 1-.281-1.64c-.094-.438-.203-1-.328-1.688-.125-.594-.281-1.328-.469-2.203a124.89 124.89 0 0 0-.609-3.234 1546.953 1546.953 0 0 1-4.172 8.296 368.184 368.184 0 0 0-2.109 4.266c-.532 1.063-.828 1.688-.891 1.875l9.75-.844Zm7.547-20.344c1.187.282 2.25.5 3.187.657.969.125 1.782.219 2.438.281a12.17 12.17 0 0 0 2.062.094c.75-.031 1.688-.14 2.813-.328 1.125-.188 2.312-.375 3.562-.563a79.96 79.96 0 0 1 3.704-.469c1.218-.125 2.281-.14 3.187-.047a12.91 12.91 0 0 1 2.859.657c1 .312 1.938.75 2.813 1.312a8.514 8.514 0 0 1 2.25 1.969 5.411 5.411 0 0 1 1.219 2.719c.156 1 .062 2.078-.282 3.234-.343 1.125-.89 2.234-1.64 3.328-.75 1.063-1.688 2.047-2.813 2.953a14.986 14.986 0 0 1-3.75 2.204 19.761 19.761 0 0 1-3.562.937c-1.094.188-2.375.313-3.844.375-1.437.031-2.969-.125-4.594-.469a13.1 13.1 0 0 0-.375 2.531c0 .75.032 1.422.094 2.016.094.688.219 1.313.375 1.875.187.563.422 1.219.703 1.969.25.625.531 1.39.844 2.297.344.875.75 1.86 1.219 2.953-.563 0-1.11.016-1.641.047-.531 0-1.016.015-1.453.047-.5.03-.969.062-1.406.093-.5.032-1.063.094-1.688.188a57.85 57.85 0 0 0-2.015.281c-.782.125-1.672.281-2.672.469.656-.938 1.172-1.797 1.546-2.578.407-.813.704-1.516.891-2.11a9.857 9.857 0 0 0 .422-1.875c.031-.468.031-1.296 0-2.484 0-1.187-.016-2.562-.047-4.125a304.297 304.297 0 0 0-.14-4.922 187.041 187.041 0 0 0-.235-4.828 76.913 76.913 0 0 0-.328-3.937c-.094-1.094-.187-1.813-.281-2.157-.125-.406-.344-.844-.656-1.312-.25-.406-.61-.875-1.079-1.406-.437-.563-1-1.188-1.687-1.876Zm9.703 9.235c-.031.312-.047.64-.047.984 0 .656.047 1.5.141 2.531.219.532.484.97.797 1.313.343.344.703.61 1.078.797.406.187.812.312 1.218.375.407.062.813.094 1.219.094.938-.032 1.922-.25 2.953-.657 1.375-.593 2.344-1.437 2.907-2.53.562-1.095.859-2.22.89-3.376.031-1.156-.172-2.219-.609-3.187-.406-.97-.906-1.625-1.5-1.97-.5-.218-1.141-.312-1.922-.28-.688.03-1.547.203-2.578.515-1.031.313-2.297.875-3.797 1.688a26.558 26.558 0 0 0-.375 1.5c-.094.437-.172.828-.234 1.172-.063.375-.11.718-.141 1.03Zm18.281-9.234c1.188.28 2.25.5 3.188.656.968.125 1.781.219 2.437.281a12.18 12.18 0 0 0 2.063.094c.75-.031 1.687-.14 2.812-.328 1.125-.188 2.313-.375 3.563-.563a79.92 79.92 0 0 1 3.703-.469c1.219-.125 2.281-.14 3.187-.047.907.094 1.86.313 2.86.657 1 .312 1.937.75 2.812 1.312a8.514 8.514 0 0 1 2.25 1.969 5.394 5.394 0 0 1 1.219 2.719c.156 1 .062 2.078-.281 3.234-.344 1.125-.891 2.234-1.641 3.328-.75 1.063-1.687 2.047-2.812 2.953a14.986 14.986 0 0 1-3.75 2.204 19.794 19.794 0 0 1-3.563.937c-1.094.188-2.375.313-3.844.375-1.437.031-2.968-.125-4.593-.469-.219.906-.344 1.75-.375 2.531 0 .75.031 1.422.093 2.016.094.688.219 1.313.375 1.875.188.563.422 1.219.703 1.969.25.625.532 1.39.844 2.297.344.875.75 1.86 1.219 2.953-.563 0-1.109.016-1.641.047-.531 0-1.015.015-1.453.047-.5.03-.969.062-1.406.093a20 20 0 0 0-1.687.188c-.532.062-1.204.156-2.016.281-.781.125-1.672.281-2.672.469.656-.938 1.172-1.797 1.547-2.578.406-.813.703-1.516.891-2.11a9.848 9.848 0 0 0 .421-1.875c.032-.468.032-1.296 0-2.484 0-1.187-.015-2.562-.047-4.125a304.297 304.297 0 0 0-.14-4.922 191.85 191.85 0 0 0-.234-4.828 76.792 76.792 0 0 0-.329-3.937c-.093-1.094-.187-1.813-.281-2.157-.125-.406-.344-.844-.656-1.312-.25-.406-.61-.875-1.078-1.406a20.66 20.66 0 0 0-1.688-1.876Zm9.703 9.234c-.031.312-.047.64-.047.984 0 .656.047 1.5.141 2.531.219.532.485.97.797 1.313.344.344.703.61 1.078.797.406.187.813.312 1.219.375.406.062.812.094 1.219.094.937-.032 1.922-.25 2.953-.657 1.375-.593 2.343-1.437 2.906-2.53.563-1.095.859-2.22.891-3.376.031-1.156-.172-2.219-.61-3.187-.406-.97-.906-1.625-1.5-1.97-.5-.218-1.14-.312-1.922-.28-.687.03-1.546.203-2.578.515-1.031.313-2.297.875-3.797 1.688a26.558 26.558 0 0 0-.375 1.5 38.91 38.91 0 0 0-.234 1.172c-.062.375-.109.718-.141 1.03Z"/></svg>