<svg width="302" height="61" viewBox="0 0 302 61" fill="none" xmlns="http://www.w3.org/2000/svg">
<g clip-path="url(#clip0_0_1)">
<path d="M186.125 10.6875C188.208 10.8125 189.958 10.9167 191.375 11C192.833 11.0417 194.042 11.0833 195 11.125C196.083 11.1667 197 11.1667 197.75 11.125C198.5 11.0833 199.521 10.9792 200.812 10.8125C201.896 10.6875 203.333 10.5 205.125 10.25C206.958 9.95833 209.229 9.58333 211.938 9.125C210.979 10.0833 210.229 10.9583 209.688 11.75C209.188 12.5 208.792 13.1458 208.5 13.6875C208.167 14.3542 207.938 14.9167 207.812 15.375C207.729 15.7917 207.812 16.8333 208.062 18.5C208.312 20.1667 208.667 22.1458 209.125 24.4375C209.583 26.6875 210.083 29.1042 210.625 31.6875C211.167 34.2292 211.708 36.625 212.25 38.875C212.792 41.0833 213.271 42.9792 213.688 44.5625C214.146 46.1042 214.479 47.0208 214.688 47.3125C215.312 48.1875 215.708 48.7708 215.875 49.0625C216.042 49.3125 216.333 49.5417 216.75 49.75C216.917 49.8333 217.188 49.9583 217.562 50.125C217.896 50.2917 218.333 50.5 218.875 50.75C219.458 51 220.188 51.2917 221.062 51.625C219.438 51.7083 218.042 51.7708 216.875 51.8125C215.708 51.8125 214.75 51.8333 214 51.875C213.125 51.9167 212.375 51.9583 211.75 52C211.125 52 210.375 52.0417 209.5 52.125C208.75 52.2083 207.771 52.2917 206.562 52.375C205.396 52.4583 204.021 52.5417 202.438 52.625C203.271 52.0417 203.938 51.5208 204.438 51.0625C204.979 50.5625 205.396 50.1458 205.688 49.8125C206.021 49.3958 206.25 49.0208 206.375 48.6875C206.458 48.3125 206.521 47.75 206.562 47C206.604 46.3333 206.604 45.4583 206.562 44.375C206.521 43.25 206.417 41.7917 206.25 40L189.812 41.6875C189.396 42.3958 189.083 43.0208 188.875 43.5625C188.667 44.0625 188.521 44.5 188.438 44.875C188.312 45.3333 188.271 45.7083 188.312 46C188.396 46.3333 188.542 46.7292 188.75 47.1875C188.958 47.6042 189.25 48.1042 189.625 48.6875C190.042 49.2292 190.646 49.875 191.438 50.625C190.396 50.5833 189.333 50.5625 188.25 50.5625C187.167 50.5625 186.167 50.5833 185.25 50.625C184.167 50.6667 183.104 50.7083 182.062 50.75C181.021 50.7917 179.833 50.8542 178.5 50.9375C177.375 51.0208 176.062 51.125 174.562 51.25C173.021 51.3333 171.375 51.4583 169.625 51.625C170.708 51.125 171.625 50.625 172.375 50.125C173.125 49.5833 173.75 49.0833 174.25 48.625C174.833 48.125 175.333 47.6458 175.75 47.1875C176.042 46.7708 176.625 45.8125 177.5 44.3125C178.375 42.7708 179.354 40.9583 180.438 38.875C181.562 36.7917 182.729 34.5625 183.938 32.1875C185.188 29.8125 186.312 27.5833 187.312 25.5C188.312 23.375 189.125 21.5417 189.75 20C190.375 18.4583 190.688 17.4583 190.688 17C190.604 16.4583 190.396 15.8542 190.062 15.1875C189.771 14.6042 189.312 13.9375 188.688 13.1875C188.104 12.4375 187.25 11.6042 186.125 10.6875ZM205.5 35.375C205.25 33.9167 205.021 32.6667 204.812 31.625C204.604 30.5417 204.438 29.6458 204.312 28.9375C204.146 28.1042 204.021 27.375 203.938 26.75C203.812 26.1667 203.667 25.4167 203.5 24.5C203.333 23.7083 203.125 22.7292 202.875 21.5625C202.667 20.3542 202.396 18.9167 202.062 17.25C199.688 22 197.833 25.6875 196.5 28.3125C195.208 30.8958 194.271 32.7917 193.688 34C192.979 35.4167 192.583 36.25 192.5 36.5L205.5 35.375ZM215.562 8.25C217.146 8.625 218.562 8.91667 219.812 9.125C221.104 9.29167 222.188 9.41667 223.062 9.5C224.104 9.625 225.021 9.66667 225.812 9.625C226.812 9.58333 228.062 9.4375 229.562 9.1875C231.062 8.9375 232.646 8.6875 234.312 8.4375C235.979 8.1875 237.625 7.97917 239.25 7.8125C240.875 7.64583 242.292 7.625 243.5 7.75C244.708 7.875 245.979 8.16667 247.312 8.625C248.646 9.04167 249.896 9.625 251.062 10.375C252.229 11.0833 253.229 11.9583 254.062 13C254.938 14.0417 255.479 15.25 255.688 16.625C255.896 17.9583 255.771 19.3958 255.312 20.9375C254.854 22.4375 254.125 23.9167 253.125 25.375C252.125 26.7917 250.875 28.1042 249.375 29.3125C247.875 30.5208 246.208 31.5 244.375 32.25C242.917 32.7917 241.333 33.2083 239.625 33.5C238.167 33.75 236.458 33.9167 234.5 34C232.583 34.0417 230.542 33.8333 228.375 33.375C228.083 34.5833 227.917 35.7083 227.875 36.75C227.875 37.75 227.917 38.6458 228 39.4375C228.125 40.3542 228.292 41.1875 228.5 41.9375C228.75 42.6875 229.062 43.5625 229.438 44.5625C229.771 45.3958 230.146 46.4167 230.562 47.625C231.021 48.7917 231.562 50.1042 232.188 51.5625C231.438 51.5625 230.708 51.5833 230 51.625C229.292 51.625 228.646 51.6458 228.062 51.6875C227.396 51.7292 226.771 51.7708 226.188 51.8125C225.521 51.8542 224.771 51.9375 223.938 52.0625C223.229 52.1458 222.333 52.2708 221.25 52.4375C220.208 52.6042 219.021 52.8125 217.688 53.0625C218.562 51.8125 219.25 50.6667 219.75 49.625C220.292 48.5417 220.688 47.6042 220.938 46.8125C221.229 45.8958 221.417 45.0625 221.5 44.3125C221.542 43.6875 221.542 42.5833 221.5 41C221.5 39.4167 221.479 37.5833 221.438 35.5C221.396 33.4167 221.333 31.2292 221.25 28.9375C221.167 26.6458 221.062 24.5 220.938 22.5C220.812 20.4583 220.667 18.7083 220.5 17.25C220.375 15.7917 220.25 14.8333 220.125 14.375C219.958 13.8333 219.667 13.25 219.25 12.625C218.917 12.0833 218.438 11.4583 217.812 10.75C217.229 10 216.479 9.16667 215.562 8.25ZM228.5 20.5625C228.458 20.9792 228.438 21.4167 228.438 21.875C228.438 22.75 228.5 23.875 228.625 25.25C228.917 25.9583 229.271 26.5417 229.688 27C230.146 27.4583 230.625 27.8125 231.125 28.0625C231.667 28.3125 232.208 28.4792 232.75 28.5625C233.292 28.6458 233.833 28.6875 234.375 28.6875C235.625 28.6458 236.938 28.3542 238.312 27.8125C240.146 27.0208 241.438 25.8958 242.188 24.4375C242.938 22.9792 243.333 21.4792 243.375 19.9375C243.417 18.3958 243.146 16.9792 242.562 15.6875C242.021 14.3958 241.354 13.5208 240.562 13.0625C239.896 12.7708 239.042 12.6458 238 12.6875C237.083 12.7292 235.938 12.9583 234.562 13.375C233.188 13.7917 231.5 14.5417 229.5 15.625C229.292 16.375 229.125 17.0417 229 17.625C228.875 18.2083 228.771 18.7292 228.688 19.1875C228.604 19.6875 228.542 20.1458 228.5 20.5625ZM252.875 8.25C254.458 8.625 255.875 8.91667 257.125 9.125C258.417 9.29167 259.5 9.41667 260.375 9.5C261.417 9.625 262.333 9.66667 263.125 9.625C264.125 9.58333 265.375 9.4375 266.875 9.1875C268.375 8.9375 269.958 8.6875 271.625 8.4375C273.292 8.1875 274.938 7.97917 276.562 7.8125C278.188 7.64583 279.604 7.625 280.812 7.75C282.021 7.875 283.292 8.16667 284.625 8.625C285.958 9.04167 287.208 9.625 288.375 10.375C289.542 11.0833 290.542 11.9583 291.375 13C292.25 14.0417 292.792 15.25 293 16.625C293.208 17.9583 293.083 19.3958 292.625 20.9375C292.167 22.4375 291.438 23.9167 290.438 25.375C289.438 26.7917 288.188 28.1042 286.688 29.3125C285.188 30.5208 283.521 31.5 281.688 32.25C280.229 32.7917 278.646 33.2083 276.938 33.5C275.479 33.75 273.771 33.9167 271.812 34C269.896 34.0417 267.854 33.8333 265.688 33.375C265.396 34.5833 265.229 35.7083 265.188 36.75C265.188 37.75 265.229 38.6458 265.312 39.4375C265.438 40.3542 265.604 41.1875 265.812 41.9375C266.062 42.6875 266.375 43.5625 266.75 44.5625C267.083 45.3958 267.458 46.4167 267.875 47.625C268.333 48.7917 268.875 50.1042 269.5 51.5625C268.75 51.5625 268.021 51.5833 267.312 51.625C266.604 51.625 265.958 51.6458 265.375 51.6875C264.708 51.7292 264.083 51.7708 263.5 51.8125C262.833 51.8542 262.083 51.9375 261.25 52.0625C260.542 52.1458 259.646 52.2708 258.562 52.4375C257.521 52.6042 256.333 52.8125 255 53.0625C255.875 51.8125 256.562 50.6667 257.062 49.625C257.604 48.5417 258 47.6042 258.25 46.8125C258.542 45.8958 258.729 45.0625 258.812 44.3125C258.854 43.6875 258.854 42.5833 258.812 41C258.812 39.4167 258.792 37.5833 258.75 35.5C258.708 33.4167 258.646 31.2292 258.562 28.9375C258.479 26.6458 258.375 24.5 258.25 22.5C258.125 20.4583 257.979 18.7083 257.812 17.25C257.688 15.7917 257.562 14.8333 257.438 14.375C257.271 13.8333 256.979 13.25 256.562 12.625C256.229 12.0833 255.75 11.4583 255.125 10.75C254.542 10 253.792 9.16667 252.875 8.25ZM265.812 20.5625C265.771 20.9792 265.75 21.4167 265.75 21.875C265.75 22.75 265.812 23.875 265.938 25.25C266.229 25.9583 266.583 26.5417 267 27C267.458 27.4583 267.938 27.8125 268.438 28.0625C268.979 28.3125 269.521 28.4792 270.062 28.5625C270.604 28.6458 271.146 28.6875 271.688 28.6875C272.938 28.6458 274.25 28.3542 275.625 27.8125C277.458 27.0208 278.75 25.8958 279.5 24.4375C280.25 22.9792 280.646 21.4792 280.688 19.9375C280.729 18.3958 280.458 16.9792 279.875 15.6875C279.333 14.3958 278.667 13.5208 277.875 13.0625C277.208 12.7708 276.354 12.6458 275.312 12.6875C274.396 12.7292 273.25 12.9583 271.875 13.375C270.5 13.7917 268.812 14.5417 266.812 15.625C266.604 16.375 266.438 17.0417 266.312 17.625C266.188 18.2083 266.083 18.7292 266 19.1875C265.917 19.6875 265.854 20.1458 265.812 20.5625Z" fill="#EB5858"/>
<path d="M5.0625 8.3125C6.39583 8.64583 7.66667 8.89583 8.875 9.0625C10.0833 9.22917 11.1458 9.35417 12.0625 9.4375C13.1458 9.5625 14.1458 9.60417 15.0625 9.5625C16.2292 9.5625 17.6875 9.45833 19.4375 9.25C21.2292 9.04167 23.0625 8.85417 24.9375 8.6875C26.8125 8.47917 28.6042 8.35417 30.3125 8.3125C32.0625 8.22917 33.4792 8.33333 34.5625 8.625C35.6458 8.875 36.75 9.27083 37.875 9.8125C39.0417 10.3125 40.1042 10.9583 41.0625 11.75C42.0208 12.5 42.8125 13.3958 43.4375 14.4375C44.0625 15.4375 44.4167 16.5833 44.5 17.875C44.4583 19.5 44.0833 21.0208 43.375 22.4375C42.7917 23.6458 41.8125 24.8958 40.4375 26.1875C39.0625 27.4375 37.0833 28.3958 34.5 29.0625C35.7917 29.2292 36.8958 29.5208 37.8125 29.9375C38.7708 30.3125 39.5833 30.7708 40.25 31.3125C40.9583 31.8125 41.5208 32.375 41.9375 33C42.3958 33.625 42.75 34.25 43 34.875C43.625 36.3333 43.9167 37.9583 43.875 39.75C43.625 42.0833 43.1458 43.9375 42.4375 45.3125C41.7708 46.6875 41 47.75 40.125 48.5C39.25 49.25 38.3542 49.7708 37.4375 50.0625C36.5208 50.3542 35.6875 50.5833 34.9375 50.75C34.1875 50.9167 33.2708 51 32.1875 51C31.1042 51 29.9375 50.9792 28.6875 50.9375C27.4792 50.8542 26.2292 50.7917 24.9375 50.75C23.6458 50.6667 22.4167 50.6667 21.25 50.75C20.2917 50.8333 19.125 50.9167 17.75 51C16.5833 51.0833 15.125 51.1875 13.375 51.3125C11.625 51.3958 9.58333 51.5 7.25 51.625C7.70833 51.2917 8.08333 50.9167 8.375 50.5C8.70833 50.0417 8.97917 49.6458 9.1875 49.3125C9.39583 48.8958 9.58333 48.5 9.75 48.125C9.875 47.7917 9.97917 46.875 10.0625 45.375C10.1458 43.875 10.2083 42.0833 10.25 40C10.2917 37.875 10.3125 35.6042 10.3125 33.1875C10.3542 30.7292 10.3333 28.375 10.25 26.125C10.2083 23.8333 10.125 21.8125 10 20.0625C9.91667 18.2708 9.79167 16.9792 9.625 16.1875C9.375 15.3125 9.04167 14.4167 8.625 13.5C8.29167 12.7083 7.8125 11.8542 7.1875 10.9375C6.60417 10.0208 5.89583 9.14583 5.0625 8.3125ZM18.25 14.6875C18.25 14.8542 18.2708 15.4167 18.3125 16.375C18.3542 17.2083 18.3958 18.5 18.4375 20.25C18.5208 21.9583 18.625 24.3958 18.75 27.5625C19.7917 28.0208 20.8125 28.2708 21.8125 28.3125C22.8125 28.3125 23.7083 28.2708 24.5 28.1875C25.4167 28.0625 26.2917 27.8542 27.125 27.5625C28.25 27.1042 29.125 26.3542 29.75 25.3125C30.4167 24.2708 30.8542 23.1875 31.0625 22.0625C31.3125 20.8958 31.375 19.8125 31.25 18.8125C31.125 17.7708 30.8542 17.0208 30.4375 16.5625C29.6458 15.8542 28.6667 15.2708 27.5 14.8125C26.5 14.4375 25.2292 14.1875 23.6875 14.0625C22.1875 13.8958 20.375 14.1042 18.25 14.6875ZM17.9375 44.3125C19.4792 45.1042 20.8333 45.625 22 45.875C23.1667 46.125 24.1458 46.25 24.9375 46.25C25.8542 46.25 26.6458 46.125 27.3125 45.875C28.1042 45.5 28.875 45 29.625 44.375C30.4167 43.7083 31 42.9375 31.375 42.0625C31.7917 41.1458 31.9583 40.1458 31.875 39.0625C31.7917 37.9375 31.3125 36.7083 30.4375 35.375C29.6458 34.4167 28.6875 33.6667 27.5625 33.125C26.5625 32.6667 25.2917 32.375 23.75 32.25C22.25 32.125 20.3958 32.4792 18.1875 33.3125L17.9375 44.3125ZM47.0625 7.6875C48.2708 7.89583 49.3333 8.04167 50.25 8.125C51.2083 8.20833 52 8.27083 52.625 8.3125C53.375 8.35417 54.0208 8.375 54.5625 8.375C55.1042 8.375 55.875 8.33333 56.875 8.25C57.7083 8.16667 58.7917 8.0625 60.125 7.9375C61.5 7.8125 63.1875 7.60417 65.1875 7.3125C64.6042 7.47917 64.0625 7.95833 63.5625 8.75C63.1042 9.5 62.6875 10.3125 62.3125 11.1875C61.8542 12.2292 61.4583 13.375 61.125 14.625C60.8333 15.75 60.4583 17.2917 60 19.25C59.5833 21.2083 59.1667 23.3333 58.75 25.625C58.375 27.9167 58.0833 30.25 57.875 32.625C57.6667 34.9583 57.625 37.1042 57.75 39.0625C57.9167 41.0208 58.3125 42.6458 58.9375 43.9375C59.5625 45.1875 60.5208 45.8542 61.8125 45.9375C63.7708 46.1042 65.3958 46.125 66.6875 46C68.0208 45.8333 69.1042 45.6042 69.9375 45.3125C70.7708 45.0208 71.4167 44.6875 71.875 44.3125C72.3333 43.8958 72.6875 43.5 72.9375 43.125C73.6042 42.1667 74.2917 40.9375 75 39.4375C75.7083 37.9375 76.3333 36.5 76.875 35.125C77.4583 33.75 77.9375 32.5833 78.3125 31.625C78.6875 30.6667 78.875 30.2083 78.875 30.25C78.875 30.3333 78.8542 30.8125 78.8125 31.6875C78.8125 32.5208 78.7917 33.5417 78.75 34.75C78.75 35.9167 78.7292 37.1458 78.6875 38.4375C78.6875 39.7292 78.6667 40.8333 78.625 41.75C78.5833 42.5 78.5417 43.3333 78.5 44.25C78.4583 45.0417 78.4167 45.9792 78.375 47.0625C78.375 48.1458 78.3333 49.3333 78.25 50.625C76.5 50.5 74.8333 50.4167 73.25 50.375C71.6667 50.3333 70.2708 50.3125 69.0625 50.3125C67.6458 50.3125 66.3333 50.3333 65.125 50.375C63.8333 50.4167 62.3333 50.4792 60.625 50.5625C59.1667 50.6458 57.3542 50.75 55.1875 50.875C53.0208 50.9583 50.5208 51.0833 47.6875 51.25C48.0208 50.6667 48.2917 50.125 48.5 49.625C48.75 49.125 48.9375 48.7083 49.0625 48.375C49.2292 47.9583 49.3333 47.6042 49.375 47.3125C49.625 45.9792 49.8333 44.2917 50 42.25C50.1667 40.1667 50.2917 37.9583 50.375 35.625C50.5 33.2917 50.5625 30.9167 50.5625 28.5C50.6042 26.0417 50.6042 23.7708 50.5625 21.6875C50.5208 19.6042 50.4375 17.7917 50.3125 16.25C50.2292 14.7083 50.1042 13.6458 49.9375 13.0625C49.7292 12.3958 49.4792 11.7292 49.1875 11.0625C48.9375 10.4792 48.625 9.89583 48.25 9.3125C47.9167 8.6875 47.5208 8.14583 47.0625 7.6875ZM101.062 5.875C103.312 5.95833 105.583 6.375 107.875 7.125C110.208 7.83333 112.354 9 114.312 10.625C116.271 12.2083 117.938 14.2708 119.312 16.8125C120.688 19.3125 121.542 22.375 121.875 26C122.167 28.9583 121.792 31.8958 120.75 34.8125C119.75 37.6875 118.354 40.3333 116.562 42.75C114.771 45.1667 112.708 47.2292 110.375 48.9375C108.042 50.6042 105.708 51.7083 103.375 52.25C101.958 52.5833 100.396 52.625 98.6875 52.375C97.0208 52.0833 95.3125 51.5625 93.5625 50.8125C91.8542 50.0208 90.1667 49.0208 88.5 47.8125C86.875 46.6042 85.3958 45.2292 84.0625 43.6875C82.7292 42.1042 81.6042 40.3958 80.6875 38.5625C79.8125 36.7292 79.2708 34.8125 79.0625 32.8125C78.8542 31.1458 78.8333 29.3125 79 27.3125C79.2083 25.2708 79.6042 23.25 80.1875 21.25C80.8125 19.2083 81.6667 17.25 82.75 15.375C83.875 13.4583 85.2917 11.7917 87 10.375C88.7083 8.91667 90.7083 7.79167 93 7C95.3333 6.16667 98.0208 5.79167 101.062 5.875ZM89.875 31.1875C89.2917 35.6458 89.7083 39.2292 91.125 41.9375C92.5833 44.6458 94.7708 46.2917 97.6875 46.875C99.1042 47.1667 100.458 46.875 101.75 46C103.083 45.0833 104.292 43.7708 105.375 42.0625C106.458 40.3542 107.396 38.3542 108.188 36.0625C108.979 33.7708 109.562 31.375 109.938 28.875C110.312 26.375 110.333 24.125 110 22.125C109.708 20.0833 109.188 18.3542 108.438 16.9375C107.688 15.4792 106.771 14.3542 105.688 13.5625C104.646 12.7708 103.562 12.3333 102.438 12.25C100.479 12.125 98.7708 12.6458 97.3125 13.8125C95.8542 14.9375 94.625 16.4167 93.625 18.25C92.625 20.0833 91.8125 22.1458 91.1875 24.4375C90.6042 26.7292 90.1667 28.9792 89.875 31.1875ZM147.688 7.875C150.354 7.83333 152.542 8.3125 154.25 9.3125C156 10.3125 157.417 11.5 158.5 12.875C159.583 14.25 160.417 15.6458 161 17.0625C161.583 18.4375 162.042 19.5208 162.375 20.3125C162.458 20.5208 162.625 20.7917 162.875 21.125C163.083 21.4167 163.375 21.7708 163.75 22.1875C164.167 22.5625 164.688 23 165.312 23.5C164.021 23.5417 162.875 23.5833 161.875 23.625C160.875 23.625 160.021 23.6458 159.312 23.6875C158.521 23.7292 157.812 23.7708 157.188 23.8125C156.562 23.8542 155.792 23.9167 154.875 24C154.042 24.0833 153.021 24.1667 151.812 24.25C150.604 24.3333 149.125 24.4583 147.375 24.625C148.417 23.375 149.229 22.2708 149.812 21.3125C150.438 20.3125 150.896 19.4375 151.188 18.6875C151.521 17.8958 151.708 17.2083 151.75 16.625C151.833 16.0417 151.812 15.5417 151.688 15.125C151.438 14.1667 150.792 13.4792 149.75 13.0625C146.75 12.2292 144.125 12.8958 141.875 15.0625C139.667 17.1875 138.083 20.6875 137.125 25.5625C136.667 27.9792 136.229 30.5 135.812 33.125C135.438 35.7083 135.292 38.0833 135.375 40.25C135.458 42.375 135.875 44.1042 136.625 45.4375C137.375 46.7708 138.667 47.3958 140.5 47.3125C142.292 47.2292 143.812 46.9375 145.062 46.4375C146.312 45.8958 147.312 45.2708 148.062 44.5625C148.812 43.8125 149.333 43.0208 149.625 42.1875C149.958 41.3125 150.083 40.5 150 39.75C149.833 39.1667 149.396 38.5417 148.688 37.875C148.062 37.2917 147.125 36.6458 145.875 35.9375C144.625 35.1875 142.833 34.4167 140.5 33.625C142.708 33.5 144.521 33.4167 145.938 33.375C147.396 33.2917 148.542 33.2083 149.375 33.125C150.375 33.0417 151.146 32.9792 151.688 32.9375C152.188 32.8958 152.917 32.8542 153.875 32.8125C154.708 32.7708 155.771 32.75 157.062 32.75C158.396 32.75 160.062 32.7292 162.062 32.6875C161.312 33.4375 160.729 34.125 160.312 34.75C160.104 35.0833 159.917 35.375 159.75 35.625C159.583 36.0417 159.521 36.8958 159.562 38.1875C159.562 39.2708 159.646 40.875 159.812 43C159.979 45.0833 160.292 47.9375 160.75 51.5625L152.438 52.6875L152.812 44.25C151.854 46.5417 150.646 48.25 149.188 49.375C147.771 50.5 146.417 51.2917 145.125 51.75C143.583 52.2917 141.979 52.5417 140.312 52.5C138.146 52.2917 135.979 51.7917 133.812 51C131.646 50.2083 129.729 49 128.062 47.375C126.396 45.7083 125.104 43.5625 124.188 40.9375C123.312 38.3125 123.042 35.0625 123.375 31.1875C123.75 27.3125 124.667 23.9375 126.125 21.0625C127.625 18.1458 129.479 15.7292 131.688 13.8125C133.896 11.8958 136.375 10.4583 139.125 9.5C141.917 8.5 144.771 7.95833 147.688 7.875Z" fill="#008BB5"/>
</g>
<defs>
<clipPath id="clip0_0_1">
<rect width="302" height="61" fill="white"/>
</clipPath>
</defs>
</svg>
